<svg xmlns="http://www.w3.org/2000/svg" viewBox="0 0 1121.10756 366.88244">
  <defs>
    <style>
      .cls-1 {
        fill: #d82030;
      }

      .cls-2 {
        fill: #ed735a;
      }
    </style>
  </defs>
  <g id="Calque_3" data-name="Calque 3">
    <g>
      <polygon class="cls-1" points="435.418 155.063 435.418 185.375 435.418 364.238 474.242 364.238 474.242 185.375 474.242 155.063 435.418 155.063"/>
      <path class="cls-1" d="M879.19514,496.16807h38.824v209.1745h-38.824Z" transform="translate(-379.04049 -341.10433)"/>
      <path class="cls-1" d="M1353.555,597.5252l-24.68742-20.71581-45.721,52.57395a188.6442,188.6442,0,0,0,2.022-26.65087l-.0163-62.60546-39.12139-32.82745.05153,198.00139,39.11285-.01018-.00927-35.63624,10.42327-11.01014,30.72039,46.63567,45.4885-.01184-48.40283-72.99633Z" transform="translate(-379.04049 -341.10433)"/>
      <path class="cls-1" d="M596.21876,579.31431c-17.09075,0-30.70834,7.82328-38.24656,22.01857V498.28906l-39.10531,33.3568V705.34251H557.9722V639.28689c0-15.643,9.271-24.33633,24.9176-24.33633,13.90657,0,20.57106,7.82328,20.57106,21.72977v68.66218h39.1128V634.0701C642.57366,599.01512,623.16532,579.31431,596.21876,579.31431Z" transform="translate(-379.04049 -341.10433)"/>
      <path class="cls-1" d="M1038.652,579.675v19.98833c-10.585-13.0977-21.84742-19.98371-38.16872-19.98371-34.3464,0-60.34244,27.57179-60.34244,63.4573s27.53821,62.20565,61.88461,62.20565c13.37606,0,25.93718-3.075,36.62655-11.35447V705.695l38.9398-.00743V579.67962Zm-34.61426,93.4278a30.40293,30.40293,0,0,1-30.6237-30.65045c0-17.1057,16.65959-29.9376,30.66529-29.9376,17.10569,0,31.35981,13.18833,31.35981,30.294S1021.14348,673.1028,1004.03778,673.1028Z" transform="translate(-379.04049 -341.10433)"/>
      <path class="cls-1" d="M1222.79235,631.0582l-.04451-4.02939h-.23279c-1.28721-13.39251-7.42545-38.78076-35.00128-45.26818-25.28555-5.94653-40.85879,2.86542-48.53072,9.54455V581.20945H1100.8767V705.11069h38.10635V632.09893c.42108-2.17046,4.28957-18.39416,25.6005-18.39416,16.66874,0,19.75327,12.18061,20.10246,19.28768v72.11824h38.10634l-.00685-68.87624C1222.78893,636.15228,1222.91559,634.18038,1222.79235,631.0582Z" transform="translate(-379.04049 -341.10433)"/>
      <path class="cls-1" d="M391.89173,682.67986l-.33846-.41375q-.33592-.44638-.66379-.89933c-7.52632-10.39762-11.849-23.36656-11.849-38.02189,0-37.34547,28.95077-63.98362,67.4567-63.98362,24.608,0,39.37283,8.97909,51.82224,24.61079l-27.79307,22.58343c-4.6308-7.52781-14.186-13.02826-24.02917-13.02826-17.659,0-27.50226,12.44664-27.50226,29.81766a36.979,36.979,0,0,0,3.74395,17.03166,27.04555,27.04555,0,0,0,1.64818,2.77349Z" transform="translate(-379.04049 -341.10433)"/>
      <path class="cls-2" d="M430.05706,669.07242q.82607.608,1.71067,1.14722a27.8993,27.8993,0,0,0,14.72946,3.81256c12.44941,0,19.10756-5.78849,24.89883-11.577l26.34456,23.15951c-12.1586,13.60434-26.63537,22.28985-51.24339,22.28985-20.71226,0-38.65989-7.70573-50.8243-20.73006C395.32606,686.80317,430.05706,669.07242,430.05706,669.07242Z" transform="translate(-379.04049 -341.10433)"/>
      <path class="cls-1" d="M666.84531,653.231V581.96224h39.11285v68.66223c0,13.90646,6.66444,22.01857,20.5709,22.01857,15.64662,0,24.3326-8.98219,24.3326-24.62881v-66.052h39.11285v123.418H750.86166l.87379-20.28211c-7.53082,14.77654-21.72607,22.88864-38.82406,22.88864C685.96484,707.98677,666.84531,688.286,666.84531,653.231Z" transform="translate(-379.04049 -341.10433)"/>
      <path class="cls-1" d="M1461.20824,579.32275v19.98833c-10.585-13.09769-21.84741-19.9837-38.16872-19.9837-34.3464,0-60.34244,27.57178-60.34244,63.45729s27.53821,62.20566,61.88461,62.20566c13.37606,0,25.93718-3.075,36.62655-11.35447v11.70688l38.93981-.00744V579.32738Zm-34.61426,93.4278a30.40293,30.40293,0,0,1-30.6237-30.65045c0-17.1057,16.65959-29.9376,30.66529-29.9376,17.1057,0,31.35982,13.18833,31.35982,30.294S1443.69968,672.75055,1426.594,672.75055Z" transform="translate(-379.04049 -341.10433)"/>
    </g>
  </g>
  <g id="Calque_4" data-name="Calque 4">
    <path class="cls-2" d="M1016.97905,494.91a279.5968,279.5968,0,0,1-29.02987-7.25093,85.88277,85.88277,0,0,1-13.41531-5.4,24.6275,24.6275,0,0,1-5.28835-3.65975c-1.38361-1.38031-1.89161-2.51409-1.67738-3.26643.01824-.85165,1.09555-2.43192,2.56441-3.82585a34.4811,34.4811,0,0,1,5.3424-4.01394,109.18412,109.18412,0,0,1,12.88248-6.70645c9.01247-4.082,18.42022-7.62886,27.86115-11.474l7.11206-2.9909,1.78549-.79188,2.02564-1.01074a22.66921,22.66921,0,0,0,4.18928-2.87928,12.004,12.004,0,0,0,3.6637-5.81612,11.16671,11.16671,0,0,0-.875-7.51284,23.04873,23.04873,0,0,0-6.77039-7.52471,81.71307,81.71307,0,0,0-14.1481-8.21245c-4.75507-2.261-9.54332-4.25607-14.35332-6.12461-19.2477-7.4021-38.77357-13.20065-58.37789-18.66829-14.69016-4.04865-29.42185-7.75234-44.23418-11.29651l.00242-.00219-.891-.21533c6.93717-6.64845,12.80251-12.96379,13.62692-13.99649,26.62826,7.35551,53.32948,15.79867,79.65892,24.832q42.49308,14.64358,84.10792,31.81752c27.79215,11.30881,55.03213,23.92806,81.937,37.2645,26.92138,13.33555,53.00649,28.28082,78.63325,44.06938-24.79159-17.03528-50.19093-33.32351-76.51532-48.03982-26.30791-14.71806-53.05175-28.766-80.41082-41.52321q-40.95654-19.31317-83.04006-36.23926-24.53548-9.80261-49.34366-18.76233l.12788-.00088c-47.19388-17.957-47.88448-14.2718-47.88448-14.2718-1.92545,4.03415-39.62171,43.84329-39.62171,43.84329l21.31312,3.96735c19.63749,3.7573,39.37737,8.002,58.88721,12.66759,19.49928,4.71794,38.96341,9.79579,57.69212,16.27373,4.66916,1.6308,9.27811,3.37234,13.71942,5.30064a71.35848,71.35848,0,0,1,12.28834,6.514,14.138,14.138,0,0,1,3.59712,3.35739l.00044.00088c-.06767.087-.14721.18677-.2373.29444a12.1322,12.1322,0,0,1-2.00807,1.4515l-1.33988.73081-1.65255.802-6.75919,3.11922c-9.141,4.09787-18.53337,8.00546-27.788,12.58322a117.60948,117.60948,0,0,0-13.72316,7.77563,42.64555,42.64555,0,0,0-6.5533,5.334c-1.97665,2.16385-4.33957,4.79835-4.78012,9.076a10.36647,10.36647,0,0,0,1.2131,5.92291,14.32,14.32,0,0,0,3.21634,4.03855,32.15976,32.15976,0,0,0,7.26565,4.74035A92.95176,92.95176,0,0,0,985.835,494.634a285.85884,285.85884,0,0,0,30.00918,6.41905c20.07013,3.32313,40.21035,5.53971,60.3609,7.46978,40.30967,3.74719,80.68175,6.10924,121.063,8.02875-40.28792-3.30422-80.551-7.05229-120.601-12.16793C1056.65833,501.772,1036.67411,498.87121,1016.97905,494.91Z" transform="translate(-379.04049 -341.10433)"/>
  </g>
  <g id="Calque_5" data-name="Calque 5">
    <path class="cls-2" d="M840.90848,401.90432c-.88813.9268-1.88832,1.8602-2.87137,2.794-1.923,1.88-4.05481,3.70456-6.08858,5.55992-4.19016,3.65886-8.46623,7.27906-12.84755,10.82058-8.713,7.127-17.7261,13.99605-26.77636,20.826-18.18006,13.58077-36.83142,26.6342-55.57551,39.56942q-28.23381,19.24066-56.90749,37.91488c-19.1,12.46721-38.37257,24.676-57.65477,36.8879,20.03849-10.91683,40.08467-21.8398,59.98561-33.03875q29.88273-16.74372,59.41653-34.17605c19.63288-11.72365,39.2049-23.58485,58.45743-36.08369,9.60045-6.3,19.1798-12.65,28.59525-19.36833q7.0835-4.99458,14.04131-10.33148c2.30843-1.84,4.63224-3.57932,6.92815-5.538,1.1507-.95756,2.29986-1.898,3.46221-2.95354,1.21486-1.08149,10.96179-8.69018,12.53349-10.33284l-22.37586-5.0176C842.86535,399.88637,841.78123,401.04476,840.90848,401.90432Z" transform="translate(-379.04049 -341.10433)"/>
  </g>
</svg>
