<svg id="logodesktop" xmlns="http://www.w3.org/2000/svg" width="200.417" height="65.857" viewBox="0 0 200.417 65.857">
  <path id="Tracé_4" data-name="Tracé 4" d="M51.444,262.677a4.855,4.855,0,0,0,3.177,1.051,5.887,5.887,0,0,0,4.524-2.107l4.785,4.209a11.377,11.377,0,0,1-9.309,4.051,12.521,12.521,0,0,1-8.919-3.445c-.066-.065.277-.685,5.743-3.758" transform="translate(-42.367 -204.261)" fill="#e85a47"/>
  <path id="Tracé_5" data-name="Tracé 5" d="M426.355,174.462l-.016-.01C426.274,174.539,426.321,174.523,426.355,174.462Z" transform="translate(-275.138 -150.951)" fill="#c44e4f"/>
  <path id="Tracé_6" data-name="Tracé 6" d="M374.285,187.229c-.036-.008-.073-.014-.109-.022A.3.3,0,0,0,374.285,187.229Z" transform="translate(-243.256 -158.751)" fill="#c44e4f"/>
  <path id="Tracé_7" data-name="Tracé 7" d="M434.81,187.916" transform="translate(-280.338 -159.185)" fill="none" stroke="#161615" stroke-miterlimit="10" stroke-width="0.25"/>
  <path id="Tracé_8" data-name="Tracé 8" d="M241.166,184.526V222.5h7.047v-37.97Z" transform="translate(-161.911 -157.112)" fill="#cc0f22"/>
  <path id="Tracé_9" data-name="Tracé 9" d="M272.165,184.526h7.047V222.5h-7.047Z" transform="translate(-180.869 -157.112)" fill="#cc0f22"/>
  <path id="Tracé_10" data-name="Tracé 10" d="M171.178,237.539V224.6h7.1v12.464c0,2.524,1.21,4,3.734,4,2.84,0,4.417-1.63,4.417-4.47V224.6h7.1V247h-7.1l.159-3.682a7.586,7.586,0,0,1-7.048,4.155C174.649,247.478,171.178,243.9,171.178,237.539Z" transform="translate(-119.109 -181.621)" fill="#cc0f22"/>
  <path id="Tracé_11" data-name="Tracé 11" d="M310.4,229.22a7.006,7.006,0,0,0-5.1,2.051l-3.944-4.207c2.1-2.051,4.469-3.682,9.729-3.682,5.731,0,10.1,3.1,10.1,10.15v12.727h-7.048l.157-3.1a7.074,7.074,0,0,1-6.625,3.576c-4.1,0-7.889-1.84-7.889-7.047,0-4.786,3.628-6.731,9.151-6.731h5.206C314.031,230.376,312.769,229.22,310.4,229.22Zm-1.1,7.941c-1.788,0-2.577.788-2.577,2.051s1.053,2,3.051,2c2.891,0,4.364-1.262,4.364-3.156v-.894Z" transform="translate(-197.757 -180.875)" fill="#cc0f22"/>
  <path id="Tracé_12" data-name="Tracé 12" d="M366.518,223.856h7.1l-.157,3.681a7.666,7.666,0,0,1,7.1-4.155c4.891,0,8.414,3.576,8.414,9.939v12.937h-7.1V233.8c0-2.524-1.21-3.945-3.734-3.945-2.84,0-4.523,1.578-4.523,4.418v11.99h-7.1Z" transform="translate(-238.573 -180.875)" fill="#cc0f22"/>
  <g id="Groupe_1" data-name="Groupe 1" transform="translate(154.923 29.435)">
    <path id="Tracé_13" data-name="Tracé 13" d="M455.488,206.106l-4.481-3.76-8.3,9.543a34.238,34.238,0,0,0,.367-4.838l0-11.364-7.1-5.959.01,35.941,7.1,0,0-6.469,1.892-2,5.577,8.465,8.257,0-8.786-13.25Z" transform="translate(-435.97 -189.728)" fill="#cc0f22"/>
  </g>
  <g id="Groupe_2" data-name="Groupe 2" transform="translate(25.252 27.799)">
    <path id="Tracé_14" data-name="Tracé 14" d="M116.179,200.225a7.483,7.483,0,0,0-6.942,4v-18.7l-7.1,6.055V223.1h7.1v-11.99c0-2.839,1.683-4.418,4.523-4.418,2.524,0,3.734,1.42,3.734,3.945V223.1h7.1V210.164C124.594,203.8,121.07,200.225,116.179,200.225Z" transform="translate(-102.138 -185.517)" fill="#cc0f22"/>
  </g>
  <path id="Tracé_15" data-name="Tracé 15" d="M501.8,232.05" transform="translate(-321.308 -186.176)" fill="#8c171c"/>
  <path id="Tracé_16" data-name="Tracé 16" d="M508.614,229.22a7.005,7.005,0,0,0-5.1,2.051l-3.944-4.207c2.1-2.051,4.469-3.682,9.729-3.682,5.732,0,10.1,3.1,10.1,10.15v12.727h-7.047l.157-3.1a7.074,7.074,0,0,1-6.625,3.576c-4.1,0-7.889-1.84-7.889-7.047,0-4.786,3.628-6.731,9.151-6.731h5.206C512.243,230.376,510.981,229.22,508.614,229.22Zm-1.1,7.941c-1.788,0-2.577.788-2.577,2.051s1.052,2,3.051,2c2.891,0,4.364-1.262,4.364-3.156v-.894Z" transform="translate(-318.978 -180.875)" fill="#cc0f22"/>
  <path id="Tracé_17" data-name="Tracé 17" d="M190.977,140.931c-.157.164-.334.329-.508.494-.34.333-.717.655-1.076.983-.741.647-1.5,1.287-2.271,1.913-1.54,1.26-3.133,2.474-4.733,3.682-3.214,2.4-6.51,4.708-9.824,6.994q-4.991,3.4-10.059,6.7c-3.376,2.2-6.783,4.362-10.191,6.521,3.542-1.93,7.086-3.861,10.6-5.84s7.02-3.99,10.5-6.041c3.471-2.072,6.93-4.169,10.333-6.378,1.7-1.114,3.39-2.236,5.054-3.424q1.252-.883,2.482-1.826c.408-.325.819-.632,1.225-.979.2-.169.406-.335.612-.522s1.938-1.536,2.216-1.826l-3.955-.887C191.323,140.574,191.131,140.779,190.977,140.931Z" transform="translate(-107.573 -130.184)" fill="#e85a47"/>
  <path id="Tracé_18" data-name="Tracé 18" d="M39.185,241.168a11.663,11.663,0,0,1-2.058-6.774c0-6.783,5.261-11.622,12.253-11.622a10.927,10.927,0,0,1,9.414,4.47l-5.048,4.1a5.278,5.278,0,0,0-4.366-2.364c-3.207,0-5,2.261-5,5.417a6.768,6.768,0,0,0,.646,3.025c.043.085.134.251.134.251C39.279,241.675,39.185,241.168,39.185,241.168Z" transform="translate(-37.127 -180.502)" fill="#cc0f22"/>
  <path id="Tracé_19" data-name="Tracé 19" d="M287.345,141.136a49.422,49.422,0,0,1-5.132-1.282,15.239,15.239,0,0,1-2.371-.954,4.358,4.358,0,0,1-.935-.647c-.245-.244-.334-.444-.3-.577a1.36,1.36,0,0,1,.453-.676,6.087,6.087,0,0,1,.945-.71,19.3,19.3,0,0,1,2.277-1.185c1.593-.721,3.256-1.349,4.925-2.028l1.257-.529.316-.14.358-.179a4,4,0,0,0,.741-.509,2.123,2.123,0,0,0,.647-1.028,1.972,1.972,0,0,0-.155-1.328,4.077,4.077,0,0,0-1.2-1.33,14.452,14.452,0,0,0-2.5-1.452c-.841-.4-1.687-.752-2.537-1.083-3.4-1.309-6.854-2.333-10.319-3.3-2.6-.715-5.2-1.37-7.819-2h0l-.157-.038c1.226-1.175,2.263-2.292,2.409-2.474,4.707,1.3,9.427,2.793,14.081,4.39q7.511,2.588,14.867,5.624c4.913,2,9.728,4.23,14.483,6.587s9.37,5,13.9,7.79c-4.382-3.011-8.872-5.89-13.525-8.491s-9.378-5.085-14.213-7.34q-7.24-3.414-14.678-6.406-4.337-1.733-8.722-3.316h.022C266.126,113.353,266,114,266,114c-.34.713-7,7.75-7,7.75l3.767.7c3.471.664,6.96,1.414,10.409,2.239s6.887,1.732,10.2,2.877c.825.288,1.64.6,2.425.937a12.645,12.645,0,0,1,2.172,1.151,2.508,2.508,0,0,1,.636.594h0l-.042.052a2.163,2.163,0,0,1-.355.256l-.237.129-.292.142-1.195.551c-1.615.724-3.276,1.415-4.912,2.224a20.782,20.782,0,0,0-2.426,1.375,7.54,7.54,0,0,0-1.158.943,2.706,2.706,0,0,0-.845,1.6,1.837,1.837,0,0,0,.214,1.047,2.529,2.529,0,0,0,.569.714,5.679,5.679,0,0,0,1.285.838,16.452,16.452,0,0,0,2.627.959,50.535,50.535,0,0,0,5.3,1.135c3.548.587,7.108.979,10.67,1.32,7.125.663,14.261,1.08,21.4,1.419-7.121-.584-14.239-1.246-21.318-2.151C294.359,142.349,290.826,141.836,287.345,141.136Z" transform="translate(-172.818 -113.949)" fill="#e85a47"/>
</svg>
