<svg xmlns="http://www.w3.org/2000/svg" width="41.565" height="38.031" >
  <g id="ico-guillemets" viewBox="0 0 41.565 38.031" transform="translate(0.917 1.006)">
    <g transform="translate(18.975)">
      <path d="M1024.124,563.264a23.163,23.163,0,0,0,15.594-16.327,17.5,17.5,0,0,0-.866-11.642,11.984,11.984,0,0,0-9.1-6.871c-3.944-.446-8.189,1.833-9.53,5.569s.844,8.5,4.689,9.484c2.473.634,5.321-.169,7.493,1.174,2.038,1.26,2.667,4.1,1.956,6.384a11.833,11.833,0,0,1-4.376,5.559c-1.9,1.463-3.989,2.683-5.742,4.317a2.955,2.955,0,0,0-1.228,2.492c.179.952,1.786,1.375,2.071.451" transform="translate(-1019.675 -528.369)" fill="#fff" stroke="#4b4f54" stroke-miterlimit="10" stroke-width="2"/>
      <path d="M1046.213,578.122l4.053-7.055" transform="translate(-1046.213 -568.962)" fill="#fff" stroke="#4b4f54" stroke-miterlimit="10" stroke-width="2"/>
      <path d="M1048.522,567.261" transform="translate(-1045.921 -555.709)" fill="#fff" stroke="#4b4f54" stroke-miterlimit="10" stroke-width="2"/>
      <path d="M1040.018,577.375l-.316.6,6.3-12.37" transform="translate(-1037.854 -565.385)" fill="#fff" stroke="#4b4f54" stroke-miterlimit="10" stroke-width="2"/>
      <path d="M1035.229,574.131l6.7-11.849" transform="translate(-1030.975 -559.449)" fill="#fff" stroke="#4b4f54" stroke-miterlimit="10" stroke-width="2"/>
      <path d="M1030.636,571.135l5.783-9.781" transform="translate(-1022.574 -555.869)" fill="#fff" stroke="#4b4f54" stroke-miterlimit="10" stroke-width="2"/>
      <path d="M1024.126,568.46l6.369-8.506" transform="translate(-1012.558 -552.315)" fill="#fff" stroke="#4b4f54" stroke-miterlimit="10" stroke-width="2"/>
      <path d="M1025.217,561.02l3.5-3.5" transform="translate(-1011.465 -543.346)" fill="#fff" stroke="#4b4f54" stroke-miterlimit="10" stroke-width="2"/>
      <path d="M1022.855,556.395l3.86-4.136-.392.39" transform="translate(-1007.979 -535.412)" fill="#fff" stroke="#4b4f54" stroke-miterlimit="10" stroke-width="2"/>
      <path d="M1025.565,549.67l3.28-3.279" transform="translate(-1011.812 -524.999)" fill="#fff" stroke="#4b4f54" stroke-miterlimit="10" stroke-width="2"/>
      <path d="M1028.614,543.217l3.711-2.2" transform="translate(-1017.21 -515.169)" fill="#fff" stroke="#4b4f54" stroke-miterlimit="10" stroke-width="2"/>
      <path d="M1036.025,536.643l3.934-1.318" transform="translate(-1029.502 -505.017)" fill="#fff" stroke="#4b4f54" stroke-miterlimit="10" stroke-width="2"/>
      <path d="M1040.146,532.893l3.5-.876" transform="translate(-1035.778 -499.186)" fill="#fff" stroke="#4b4f54" stroke-miterlimit="10" stroke-width="2"/>
    </g>
    <g transform="translate(0 5.036)">
      <path d="M1022.921,553.5a16.683,16.683,0,0,0,11.231-11.759,12.6,12.6,0,0,0-.624-8.385,8.631,8.631,0,0,0-6.555-4.948,6.6,6.6,0,0,0-6.864,4.011c-.966,2.691.608,6.12,3.377,6.83,1.781.456,3.832-.121,5.4.846a4.047,4.047,0,0,1,1.408,4.6,8.523,8.523,0,0,1-3.151,4c-1.367,1.054-2.873,1.932-4.135,3.109a2.129,2.129,0,0,0-.885,1.795c.129.685,1.286.991,1.492.325" transform="translate(-1019.717 -528.369)" fill="#fff" stroke="#4b4f54" stroke-miterlimit="10" stroke-width="2"/>
      <path d="M1046.213,576.148l2.919-5.081" transform="translate(-1046.213 -569.551)" fill="#fff" stroke="#4b4f54" stroke-miterlimit="10" stroke-width="2"/>
      <path d="M1048.522,567.261" transform="translate(-1046.648 -558.941)" fill="#fff" stroke="#4b4f54" stroke-miterlimit="10" stroke-width="2"/>
      <path d="M1039.93,574.082l-.227.434,4.535-8.909" transform="translate(-1038.372 -565.447)" fill="#fff" stroke="#4b4f54" stroke-miterlimit="10" stroke-width="2"/>
      <path d="M1035.229,570.816l4.828-8.534" transform="translate(-1032.165 -560.241)" fill="#fff" stroke="#4b4f54" stroke-miterlimit="10" stroke-width="2"/>
      <path d="M1030.636,568.4l4.165-7.044" transform="translate(-1024.83 -557.404)" fill="#fff" stroke="#4b4f54" stroke-miterlimit="10" stroke-width="2"/>
      <path d="M1024.126,566.08l4.587-6.126" transform="translate(-1015.795 -554.452)" fill="#fff" stroke="#4b4f54" stroke-miterlimit="10" stroke-width="2"/>
      <path d="M1025.217,560.042l2.52-2.52" transform="translate(-1015.312 -547.312)" fill="#fff" stroke="#4b4f54" stroke-miterlimit="10" stroke-width="2"/>
      <path d="M1022.855,555.238l2.78-2.979-.282.281" transform="translate(-1012.141 -540.126)" fill="#fff" stroke="#4b4f54" stroke-miterlimit="10" stroke-width="2"/>
      <path d="M1025.565,548.753l2.362-2.362" transform="translate(-1015.66 -530.984)" fill="#fff" stroke="#4b4f54" stroke-miterlimit="10" stroke-width="2"/>
      <path d="M1028.614,542.6l2.673-1.582" transform="translate(-1020.4 -522.402)" fill="#fff" stroke="#4b4f54" stroke-miterlimit="10" stroke-width="2"/>
      <path d="M1036.025,536.275l2.833-.949" transform="translate(-1031.327 -513.497)" fill="#fff" stroke="#4b4f54" stroke-miterlimit="10" stroke-width="2"/>
      <path d="M1040.146,532.648l2.52-.631" transform="translate(-1037 -508.372)" fill="#fff" stroke="#4b4f54" stroke-miterlimit="10" stroke-width="2"/>
    </g>
  </g>
</svg>
